HIERARCHY
ROOT hip
{
	OFFSET 0.000000 0.000000 0.000000 
	CHANNELS 6 Xposition Yposition Zposition Xrotation Zrotation Yrotation
	JOINT abdomen
	{
		OFFSET 0.000000 3.402643 0.000000 
		CHANNELS 3 Xrotation Zrotation Yrotation
		JOINT chest
		{
			OFFSET 0.000000 8.438565 -0.680529 
			CHANNELS 3 Xrotation Zrotation Yrotation
			JOINT neck
			{
				OFFSET 0.000000 10.207942 -0.272212 
				CHANNELS 3 Xrotation Zrotation Yrotation
				JOINT head
				{
					OFFSET 0.000000 3.130431 0.000000 
					CHANNELS 3 Xrotation Zrotation Yrotation
					End Site
					{
						OFFSET 0.000000 3.130435 0.000000 
					}
				}
			}
			JOINT lCollar
			{
				OFFSET 3.470700 6.669187 -0.816635 
				CHANNELS 3 Yrotation Zrotation Xrotation
				JOINT lShldr
				{
					OFFSET 3.198488 0.000000 0.000000 
					CHANNELS 3 Zrotation Yrotation Xrotation
					JOINT lForeArm
					{
						OFFSET 10.139888 0.000000 0.000000 
						CHANNELS 3 Yrotation Zrotation Xrotation
						JOINT lHand
						{
							OFFSET 8.370511 0.000000 0.000000 
							CHANNELS 3 Zrotation Yrotation Xrotation
							End Site
							{
								OFFSET 4.083176 0.000000 0.000000 
							}
						}
					}
				}
			}
			JOINT rCollar
			{
				OFFSET -3.470700 6.669187 -0.816635 
				CHANNELS 3 Yrotation Zrotation Xrotation
				JOINT rShldr
				{
					OFFSET -3.198488 0.000000 0.000000 
					CHANNELS 3 Zrotation Yrotation Xrotation
					JOINT rForeArm
					{
						OFFSET -10.139888 0.000000 0.000000 
						CHANNELS 3 Yrotation Zrotation Xrotation
						JOINT rHand
						{
							OFFSET -8.370511 0.000000 0.000000 
							CHANNELS 3 Zrotation Yrotation Xrotation
							End Site
							{
								OFFSET -4.083176 0.000000 0.000000 
							}
						}
					}
				}
			}
		}
	}
	JOINT lThigh
	{
		OFFSET 5.308129 -1.633274 1.361059 
		CHANNELS 3 Xrotation Zrotation Yrotation
		JOINT lShin
		{
			OFFSET -2.041588 -20.007561 0.000000 
			CHANNELS 3 Xrotation Zrotation Yrotation
			JOINT lFoot
			{
				OFFSET 0.000000 -19.190928 -1.224953 
				CHANNELS 3 Xrotation Yrotation Zrotation
				End Site
				{
					OFFSET 0.000000 -2.449906 4.627600 
				}
			}
		}
	}
	JOINT rThigh
	{
		OFFSET -5.308129 -1.633274 1.361059 
		CHANNELS 3 Xrotation Zrotation Yrotation
		JOINT rShin
		{
			OFFSET 2.041588 -20.007561 0.000000 
			CHANNELS 3 Xrotation Zrotation Yrotation
			JOINT rFoot
			{
				OFFSET 0.000000 -19.190928 -1.224953 
				CHANNELS 3 Xrotation Yrotation Zrotation
				End Site
				{
					OFFSET 0.000000 -2.449906 4.627600 
				}
			}
		}
	}
}
MOTION
Frames: 13
Frame Time: 0.016667
1.736142 44.596581 -2.148223 1.669960 -0.361175 19.911301 -19.475599 -0.006429 -5.726070 20.331301 4.628870 -2.742740 11.051278 -16.834726 3.872569 16.427099 6.270690 -0.054518 2.000000 -2.000000 0.000000 -0.406999 -78.038200 120.218002 30.254200 -0.332944 0.068942 0.077055 0.086951 -99.851601 -2.000000 2.000000 0.000000 10.310500 65.240196 130.878998 -47.119598 0.307881 0.100186 -0.085757 -0.085527 -100.486000 -2.335449 -2.679509 1.258100 24.519741 3.248935 1.756756 -18.089529 12.462070 3.775159 -23.202324 2.390497 5.207136 31.568527 -2.389760 -2.477612 -7.887874 -3.389554 -1.292035 
1.837483 44.603275 -2.380054 1.709000 -0.234271 19.397301 -19.690300 -0.091696 -5.703540 19.939400 4.628640 -2.754730 10.877564 -17.195112 4.121949 16.630800 6.169990 0.053044 2.000000 -2.000000 0.000000 9.848190 -78.420303 109.068001 26.992500 -0.336672 0.062112 0.076464 0.086163 -100.203003 -2.000000 2.000000 0.000000 4.802300 67.133102 125.364998 -42.773899 0.315204 0.092849 -0.084885 -0.084335 -101.014000 -2.468038 -2.955674 1.835767 24.378046 3.206748 1.769616 -17.865671 12.307627 3.711918 -23.357933 2.190591 5.579237 31.370867 -2.406285 -2.466191 -7.382852 -3.316459 -1.262974 
1.945362 44.618317 -2.564717 1.572280 -0.273335 19.055000 -19.750200 -0.005179 -5.695200 19.900101 4.716490 -2.739350 10.801139 -17.134859 4.170954 16.572399 6.190590 0.061782 2.000000 -2.000000 0.000000 14.361700 -78.560699 103.552002 26.221001 -0.337496 0.060466 0.077850 0.087995 -99.382797 -2.000000 2.000000 0.000000 1.797300 67.888496 122.796997 -41.406700 0.317391 0.090428 -0.083993 -0.083090 -101.560997 -2.482795 -3.021949 2.147565 24.426517 3.209686 1.759947 -17.895088 12.138204 3.651451 -23.266363 2.162343 5.640627 31.003950 -2.440658 -2.423434 -6.868218 -3.395067 -1.248589 
2.053239 44.633495 -2.749389 1.445330 -0.312401 18.722500 -19.800400 0.072214 -5.683370 19.870600 4.804340 -2.723270 10.717551 -17.074883 4.202574 16.524000 6.220460 0.082354 2.000000 -2.000000 0.000000 18.958099 -78.612000 97.937698 25.449499 -0.338298 0.058809 0.079263 0.089806 -98.562500 -2.000000 2.000000 0.000000 -1.395570 68.585297 120.044998 -40.029701 0.319534 0.087937 -0.083128 -0.081859 -102.098000 -2.474020 -3.070204 2.457515 24.490208 3.181607 1.782674 -17.968283 11.950700 3.596104 -23.138647 2.112176 5.718157 30.600368 -2.454733 -2.405320 -6.313097 -3.466210 -1.218212 
2.155535 44.625515 -2.918897 1.240250 -0.273373 18.617100 -19.645901 0.118763 -5.642200 20.154800 4.853400 -2.690130 10.868695 -17.006163 4.165384 16.583900 6.257050 0.077618 2.000000 -2.000000 0.000000 22.130699 -78.524902 94.784203 25.635000 -0.338107 0.059209 0.079603 0.090235 -98.367203 -2.000000 2.000000 0.000000 -2.475840 68.420197 119.206001 -40.556999 0.318720 0.088897 -0.084693 -0.084069 -101.130997 -2.403704 -3.222868 2.551822 24.520456 3.175710 1.781110 -18.057358 11.906506 3.583704 -22.941359 1.966741 5.534815 30.331890 -2.484286 -2.368809 -6.038443 -3.312354 -1.183403 
2.257830 44.617680 -3.088392 1.044930 -0.234336 18.501499 -19.491100 0.161940 -5.610030 20.438999 4.902330 -2.656500 11.016689 -16.936089 4.134694 16.653700 6.293360 0.074028 2.000000 -2.000000 0.000000 25.243799 -78.408096 91.689102 25.830400 -0.337905 0.059628 0.079944 0.090662 -98.171898 -2.000000 2.000000 0.000000 -3.546170 68.255096 118.386002 -41.094200 0.317883 0.089867 -0.086311 -0.086273 -100.153999 -2.358885 -3.374000 2.657962 24.589441 3.178308 1.790596 -18.158716 11.864570 3.560284 -22.733013 1.819644 5.342677 30.054171 -2.510466 -2.341598 -5.750577 -3.161726 -1.150054 
2.345813 44.624744 -3.252923 0.810554 -0.234352 18.424400 -19.345800 0.201621 -5.587220 20.693899 4.941390 -2.624100 11.100560 -16.823450 4.048578 16.634300 6.303410 0.054475 2.000000 -2.000000 0.000000 25.990400 -78.222603 91.327904 26.152599 -0.337568 0.060320 0.079722 0.090384 -98.298798 -2.000000 2.000000 0.000000 -4.017540 67.766602 118.570999 -41.680099 0.316958 0.090916 -0.086969 -0.087147 -99.763702 -2.281912 -3.457991 2.656301 24.688202 3.175560 1.789383 -18.325493 11.919116 3.590665 -22.513000 1.756701 5.362065 29.806648 -2.530097 -2.321729 -5.547050 -3.277893 -1.162719 
2.433808 44.631958 -3.417465 0.566411 -0.224598 18.347401 -19.191000 0.244874 -5.554750 20.958500 4.970580 -2.601180 11.181298 -16.724215 3.963840 16.624701 6.313200 0.026224 2.000000 -2.000000 0.000000 26.717199 -78.037102 90.986099 26.474899 -0.337227 0.061009 0.079501 0.090106 -98.425797 -2.000000 2.000000 0.000000 -4.469270 67.268402 118.765999 -42.275799 0.316008 0.091973 -0.087616 -0.087995 -99.382797 -2.225418 -3.547381 2.636750 24.806654 3.179279 1.808248 -18.493080 11.954936 3.610250 -22.283607 1.689230 5.382715 29.528814 -2.550770 -2.282766 -5.324956 -3.393011 -1.173259 
2.509310 44.624496 -3.581770 0.322266 -0.107420 18.270901 -19.319401 0.177408 -5.484510 20.762501 4.931610 -2.579190 11.208574 -16.995161 4.097539 16.731199 6.253160 0.083812 2.000000 -2.000000 0.000000 24.951500 -78.046600 93.388000 26.514000 -0.337186 0.061092 0.078520 0.088860 -98.992203 -2.000000 2.000000 0.000000 -3.507810 66.934898 120.035004 -42.363701 0.315866 0.092128 -0.087632 -0.088017 -99.373001 -2.151244 -3.696985 2.828151 24.907009 3.166286 1.814124 -18.470715 11.806211 3.543572 -22.148558 1.556123 5.548606 29.506290 -2.583176 -2.281452 -5.186895 -3.604722 -1.185775 
2.584790 44.617161 -3.746099 0.078125 0.019531 18.193399 -19.438101 0.110176 -5.413580 20.566401 4.892580 -2.566690 11.227267 -17.271521 4.232864 16.837500 6.183630 0.129261 2.000000 -2.000000 0.000000 23.186100 -78.036400 95.789703 26.562799 -0.337134 0.061196 0.077551 0.087604 -99.558601 -2.000000 2.000000 0.000000 -2.576120 66.591599 121.274002 -42.461399 0.315709 0.092300 -0.087632 -0.088017 -99.373001 -2.008417 -3.839040 3.031547 24.934610 3.179133 1.806719 -18.464857 11.652588 3.463669 -21.973791 1.424632 5.717796 29.415169 -2.605433 -2.259353 -5.026826 -3.806755 -1.213531 
2.655193 44.627968 -3.905956 -0.185548 0.185546 18.095100 -19.447800 0.064020 -5.397640 20.537001 4.912110 -2.570030 11.391946 -17.439434 4.281051 16.907000 6.210370 0.143118 2.000000 -2.000000 0.000000 21.390800 -78.016403 97.390900 26.680000 -0.337008 0.061446 0.077088 0.086994 -99.832001 -2.000000 2.000000 0.000000 -1.958450 66.493103 121.889000 -42.265999 0.316023 0.091955 -0.087566 -0.087930 -99.412102 -1.790392 -4.025407 3.254369 24.855635 3.181156 1.808047 -18.341763 11.500539 3.372352 -21.953091 1.294644 6.115737 29.539513 -2.638471 -2.255282 -5.098742 -4.072454 -1.246352 
2.725584 44.638760 -4.065814 -0.449227 0.341786 17.995399 -19.457899 0.021283 -5.372550 20.517401 4.921870 -2.561940 11.543313 -17.605040 4.326995 16.986300 6.236810 0.148337 2.000000 -2.000000 0.000000 19.605499 -77.986603 98.982201 26.797199 -0.336882 0.061696 0.076611 0.086361 -100.114998 -2.000000 2.000000 0.000000 -1.350650 66.384903 122.503998 -42.061001 0.316352 0.091593 -0.087483 -0.087821 -99.460899 -1.610997 -4.199388 3.500094 24.785604 3.184058 1.790003 -18.212439 11.365352 3.265744 -21.866510 1.157104 6.548966 29.614819 -2.671763 -2.252657 -5.192548 -4.368959 -1.282325 
2.793626 44.631821 -4.219942 -0.625018 0.439427 17.895599 -19.429899 -0.019993 -5.315570 20.556601 4.853520 -2.539060 11.715628 -17.832064 4.364371 17.143400 6.232550 0.145774 2.000000 -2.000000 0.000000 17.513800 -77.907700 100.963997 27.588200 -0.336020 0.063375 0.075813 0.085284 -100.594002 -2.000000 2.000000 0.000000 -0.441180 66.130203 123.128998 -42.471100 0.315693 0.092317 -0.086870 -0.087016 -99.822304 -1.563414 -4.317712 3.792707 24.876097 3.174645 1.806463 -18.243822 11.196689 3.206614 -21.744619 1.064779 6.814592 29.515661 -2.681123 -2.246864 -5.099535 -4.631789 -1.307174 
